  0
SECTION
  2
HEADER
  9
$ACADVER
  1
AC1027
  9
$ACADMAINTVER
 70
105
  9
$DWGCODEPAGE
  3
ANSI_1252
  9
$LASTSAVEDBY
  1
ezdxf
  9
$REQUIREDVERSIONS
160
0
  9
$INSBASE
 10
0.0
 20
0.0
 30
0.0
  9
$EXTMIN
 10
1e+20
 20
1e+20
 30
1e+20
  9
$EXTMAX
 10
-1e+20
 20
-1e+20
 30
-1e+20
  9
$LIMMIN
 10
0.0
 20
0.0
  9
$LIMMAX
 10
420.0
 20
297.0
  9
$ORTHOMODE
 70
0
  9
$REGENMODE
 70
1
  9
$FILLMODE
 70
1
  9
$QTEXTMODE
 70
0
  9
$MIRRTEXT
 70
1
  9
$LTSCALE
 40
1.0
  9
$ATTMODE
 70
1
  9
$TEXTSIZE
 40
2.5
  9
$TRACEWID
 40
1.0
  9
$TEXTSTYLE
  7
Standard
  9
$CLAYER
  8
0
  9
$CELTYPE
  6
ByLayer
  9
$CECOLOR
 62
256
  9
$CELTSCALE
 40
1.0
  9
$DISPSILH
 70
0
  9
$DIMSCALE
 40
1.0
  9
$DIMASZ
 40
2.5
  9
$DIMEXO
 40
0.625
  9
$DIMDLI
 40
3.75
  9
$DIMRND
 40
0.0
  9
$DIMDLE
 40
0.0
  9
$DIMEXE
 40
1.25
  9
$DIMTP
 40
0.0
  9
$DIMTM
 40
0.0
  9
$DIMTXT
 40
2.5
  9
$DIMCEN
 40
2.5
  9
$DIMTSZ
 40
0.0
  9
$DIMTOL
 70
0
  9
$DIMLIM
 70
0
  9
$DIMTIH
 70
0
  9
$DIMTOH
 70
0
  9
$DIMSE1
 70
0
  9
$DIMSE2
 70
0
  9
$DIMTAD
 70
1
  9
$DIMZIN
 70
8
  9
$DIMBLK
  1

  9
$DIMASO
 70
1
  9
$DIMSHO
 70
1
  9
$DIMPOST
  1

  9
$DIMAPOST
  1

  9
$DIMALT
 70
0
  9
$DIMALTD
 70
3
  9
$DIMALTF
 40
0.03937007874
  9
$DIMLFAC
 40
1.0
  9
$DIMTOFL
 70
1
  9
$DIMTVP
 40
0.0
  9
$DIMTIX
 70
0
  9
$DIMSOXD
 70
0
  9
$DIMSAH
 70
0
  9
$DIMBLK1
  1

  9
$DIMBLK2
  1

  9
$DIMSTYLE
  2
ISO-25
  9
$DIMCLRD
 70
0
  9
$DIMCLRE
 70
0
  9
$DIMCLRT
 70
0
  9
$DIMTFAC
 40
1.0
  9
$DIMGAP
 40
0.625
  9
$DIMJUST
 70
0
  9
$DIMSD1
 70
0
  9
$DIMSD2
 70
0
  9
$DIMTOLJ
 70
0
  9
$DIMTZIN
 70
8
  9
$DIMALTZ
 70
0
  9
$DIMALTTZ
 70
0
  9
$DIMUPT
 70
0
  9
$DIMDEC
 70
2
  9
$DIMTDEC
 70
2
  9
$DIMALTU
 70
2
  9
$DIMALTTD
 70
3
  9
$DIMTXSTY
  7
Standard
  9
$DIMAUNIT
 70
0
  9
$DIMADEC
 70
0
  9
$DIMALTRND
 40
0.0
  9
$DIMAZIN
 70
0
  9
$DIMDSEP
 70
44
  9
$DIMATFIT
 70
3
  9
$DIMFRAC
 70
0
  9
$DIMLDRBLK
  1

  9
$DIMLUNIT
 70
2
  9
$DIMLWD
 70
-2
  9
$DIMLWE
 70
-2
  9
$DIMTMOVE
 70
0
  9
$DIMFXL
 40
1.0
  9
$DIMFXLON
 70
0
  9
$DIMJOGANG
 40
0.785398163397
  9
$DIMTFILL
 70
0
  9
$DIMTFILLCLR
 70
0
  9
$DIMARCSYM
 70
0
  9
$DIMLTYPE
  6

  9
$DIMLTEX1
  6

  9
$DIMLTEX2
  6

  9
$DIMTXTDIRECTION
 70
0
  9
$LUNITS
 70
2
  9
$LUPREC
 70
4
  9
$SKETCHINC
 40
1.0
  9
$FILLETRAD
 40
10.0
  9
$AUNITS
 70
0
  9
$AUPREC
 70
2
  9
$MENU
  1
.
  9
$ELEVATION
 40
0.0
  9
$PELEVATION
 40
0.0
  9
$THICKNESS
 40
0.0
  9
$LIMCHECK
 70
0
  9
$CHAMFERA
 40
0.0
  9
$CHAMFERB
 40
0.0
  9
$CHAMFERC
 40
0.0
  9
$CHAMFERD
 40
0.0
  9
$SKPOLY
 70
0
  9
$TDCREATE
 40
2460266.030266204
  9
$TDUCREATE
 40
2458532.153996898
  9
$TDUPDATE
 40
2460266.030266204
  9
$TDUUPDATE
 40
2458532.1544311
  9
$TDINDWG
 40
0.0
  9
$TDUSRTIMER
 40
0.0
  9
$USRTIMER
 70
1
  9
$ANGBASE
 50
0.0
  9
$ANGDIR
 70
0
  9
$PDMODE
 70
0
  9
$PDSIZE
 40
0.0
  9
$PLINEWID
 40
0.0
  9
$SPLFRAME
 70
0
  9
$SPLINETYPE
 70
6
  9
$SPLINESEGS
 70
8
  9
$HANDSEED
  5
B6
  9
$SURFTAB1
 70
6
  9
$SURFTAB2
 70
6
  9
$SURFTYPE
 70
6
  9
$SURFU
 70
6
  9
$SURFV
 70
6
  9
$UCSBASE
  2

  9
$UCSNAME
  2

  9
$UCSORG
 10
0.0
 20
0.0
 30
0.0
  9
$UCSXDIR
 10
1.0
 20
0.0
 30
0.0
  9
$UCSYDIR
 10
0.0
 20
1.0
 30
0.0
  9
$UCSORTHOREF
  2

  9
$UCSORTHOVIEW
 70
0
  9
$UCSORGTOP
 10
0.0
 20
0.0
 30
0.0
  9
$UCSORGBOTTOM
 10
0.0
 20
0.0
 30
0.0
  9
$UCSORGLEFT
 10
0.0
 20
0.0
 30
0.0
  9
$UCSORGRIGHT
 10
0.0
 20
0.0
 30
0.0
  9
$UCSORGFRONT
 10
0.0
 20
0.0
 30
0.0
  9
$UCSORGBACK
 10
0.0
 20
0.0
 30
0.0
  9
$PUCSBASE
  2

  9
$PUCSNAME
  2

  9
$PUCSORG
 10
0.0
 20
0.0
 30
0.0
  9
$PUCSXDIR
 10
1.0
 20
0.0
 30
0.0
  9
$PUCSYDIR
 10
0.0
 20
1.0
 30
0.0
  9
$PUCSORTHOREF
  2

  9
$PUCSORTHOVIEW
 70
0
  9
$PUCSORGTOP
 10
0.0
 20
0.0
 30
0.0
  9
$PUCSORGBOTTOM
 10
0.0
 20
0.0
 30
0.0
  9
$PUCSORGLEFT
 10
0.0
 20
0.0
 30
0.0
  9
$PUCSORGRIGHT
 10
0.0
 20
0.0
 30
0.0
  9
$PUCSORGFRONT
 10
0.0
 20
0.0
 30
0.0
  9
$PUCSORGBACK
 10
0.0
 20
0.0
 30
0.0
  9
$USERI1
 70
0
  9
$USERI2
 70
0
  9
$USERI3
 70
0
  9
$USERI4
 70
0
  9
$USERI5
 70
0
  9
$USERR1
 40
0.0
  9
$USERR2
 40
0.0
  9
$USERR3
 40
0.0
  9
$USERR4
 40
0.0
  9
$USERR5
 40
0.0
  9
$WORLDVIEW
 70
1
  9
$SHADEDGE
 70
3
  9
$SHADEDIF
 70
70
  9
$TILEMODE
 70
1
  9
$MAXACTVP
 70
64
  9
$PINSBASE
 10
0.0
 20
0.0
 30
0.0
  9
$PLIMCHECK
 70
0
  9
$PEXTMIN
 10
1e+20
 20
1e+20
 30
1e+20
  9
$PEXTMAX
 10
-1e+20
 20
-1e+20
 30
-1e+20
  9
$PLIMMIN
 10
0.0
 20
0.0
  9
$PLIMMAX
 10
420.0
 20
297.0
  9
$UNITMODE
 70
0
  9
$VISRETAIN
 70
1
  9
$PLINEGEN
 70
0
  9
$PSLTSCALE
 70
1
  9
$TREEDEPTH
 70
3020
  9
$CMLSTYLE
  2
Standard
  9
$CMLJUST
 70
0
  9
$CMLSCALE
 40
20.0
  9
$PROXYGRAPHICS
 70
1
  9
$MEASUREMENT
 70
1
  9
$CELWEIGHT
370
-1
  9
$ENDCAPS
280
0
  9
$JOINSTYLE
280
0
  9
$LWDISPLAY
290
0
  9
$INSUNITS
 70
6
  9
$HYPERLINKBASE
  1

  9
$STYLESHEET
  1

  9
$XEDIT
290
1
  9
$CEPSNTYPE
380
0
  9
$PSTYLEMODE
290
1
  9
$FINGERPRINTGUID
  2
{B050C3FD-498F-45D9-9B0E-9D6149AD38A5}
  9
$VERSIONGUID
  2
{18A6BA14-9149-471C-8088-CC7E9116BDB9}
  9
$EXTNAMES
290
1
  9
$PSVPSCALE
 40
0.0
  9
$OLESTARTUP
290
0
  9
$SORTENTS
280
127
  9
$INDEXCTL
280
0
  9
$HIDETEXT
280
1
  9
$XCLIPFRAME
280
0
  9
$HALOGAP
280
0
  9
$OBSCOLOR
 70
257
  9
$OBSLTYPE
280
0
  9
$INTERSECTIONDISPLAY
280
0
  9
$INTERSECTIONCOLOR
 70
257
  9
$DIMASSOC
280
2
  9
$PROJECTNAME
  1

  9
$CAMERADISPLAY
290
0
  9
$LENSLENGTH
 40
50.0
  9
$CAMERAHEIGHT
 40
0.0
  9
$STEPSPERSEC
 40
24.0
  9
$STEPSIZE
 40
100.0
  9
$3DDWFPREC
 40
2.0
  9
$PSOLWIDTH
 40
0.005
  9
$PSOLHEIGHT
 40
0.08
  9
$LOFTANG1
 40
1.570796326795
  9
$LOFTANG2
 40
1.570796326795
  9
$LOFTMAG1
 40
0.0
  9
$LOFTMAG2
 40
0.0
  9
$LOFTPARAM
 70
7
  9
$LOFTNORMALS
280
1
  9
$LATITUDE
 40
37.795
  9
$LONGITUDE
 40
-122.394
  9
$NORTHDIRECTION
 40
0.0
  9
$TIMEZONE
 70
-8000
  9
$LIGHTGLYPHDISPLAY
280
1
  9
$TILEMODELIGHTSYNCH
280
1
  9
$CMATERIAL
347
20
  9
$SOLIDHIST
280
0
  9
$SHOWHIST
280
1
  9
$DWFFRAME
280
2
  9
$DGNFRAME
280
2
  9
$REALWORLDSCALE
290
1
  9
$INTERFERECOLOR
 62
256
  9
$CSHADOW
280
0
  9
$SHADOWPLANELOCATION
 40
0.0
  0
ENDSEC
  0
SECTION
  2
CLASSES
  0
CLASS
  1
ACDBDICTIONARYWDFLT
  2
AcDbDictionaryWithDefault
  3
ObjectDBX Classes
 90
0
 91
0
280
0
281
0
  0
CLASS
  1
SUN
  2
AcDbSun
  3
SCENEOE
 90
1153
 91
0
280
0
281
0
  0
CLASS
  1
VISUALSTYLE
  2
AcDbVisualStyle
  3
ObjectDBX Classes
 90
4095
 91
0
280
0
281
0
  0
CLASS
  1
MATERIAL
  2
AcDbMaterial
  3
ObjectDBX Classes
 90
1153
 91
0
280
0
281
0
  0
CLASS
  1
SCALE
  2
AcDbScale
  3
ObjectDBX Classes
 90
1153
 91
0
280
0
281
0
  0
CLASS
  1
TABLESTYLE
  2
AcDbTableStyle
  3
ObjectDBX Classes
 90
4095
 91
0
280
0
281
0
  0
CLASS
  1
MLEADERSTYLE
  2
AcDbMLeaderStyle
  3
ACDB_MLEADERSTYLE_CLASS
 90
4095
 91
0
280
0
281
0
  0
CLASS
  1
DICTIONARYVAR
  2
AcDbDictionaryVar
  3
ObjectDBX Classes
 90
0
 91
0
280
0
281
0
  0
CLASS
  1
CELLSTYLEMAP
  2
AcDbCellStyleMap
  3
ObjectDBX Classes
 90
1152
 91
0
280
0
281
0
  0
CLASS
  1
MENTALRAYRENDERSETTINGS
  2
AcDbMentalRayRenderSettings
  3
SCENEOE
 90
1024
 91
0
280
0
281
0
  0
CLASS
  1
ACDBDETAILVIEWSTYLE
  2
AcDbDetailViewStyle
  3
ObjectDBX Classes
 90
1025
 91
0
280
0
281
0
  0
CLASS
  1
ACDBSECTIONVIEWSTYLE
  2
AcDbSectionViewStyle
  3
ObjectDBX Classes
 90
1025
 91
0
280
0
281
0
  0
CLASS
  1
RASTERVARIABLES
  2
AcDbRasterVariables
  3
ISM
 90
0
 91
0
280
0
281
0
  0
CLASS
  1
LAYOUT
  2
AcDbLayout
  3
ObjectDBX Classes
 90
0
 91
0
280
0
281
0
  0
CLASS
  1
ACDBPLACEHOLDER
  2
AcDbPlaceHolder
  3
ObjectDBX Classes
 90
0
 91
0
280
0
281
0
  0
ENDSEC
  0
SECTION
  2
TABLES
  0
TABLE
  2
VPORT
  5
8
330
0
100
AcDbSymbolTable
 70
1
  0
VPORT
  5
23
330
8
100
AcDbSymbolTableRecord
100
AcDbViewportTableRecord
  2
*Active
 70
0
 10
0.0
 20
0.0
 11
1.0
 21
1.0
 12
0.0
 22
0.0
 13
0.0
 23
0.0
 14
0.5
 24
0.5
 15
0.5
 25
0.5
 16
0.0
 26
0.0
 36
1.0
 17
0.0
 27
0.0
 37
0.0
 40
1000.0
 41
1.34
 42
50.0
 43
0.0
 44
0.0
 50
0.0
 51
0.0
 71
0
 72
1000
 73
1
 74
3
 75
0
 76
0
 77
0
 78
0
281
0
 65
0
146
0.0
  0
ENDTAB
  0
TABLE
  2
LTYPE
  5
2
330
0
100
AcDbSymbolTable
 70
3
  0
LTYPE
  5
24
330
2
100
AcDbSymbolTableRecord
100
AcDbLinetypeTableRecord
  2
ByBlock
 70
0
  3

 72
65
 73
0
 40
0.0
  0
LTYPE
  5
25
330
2
100
AcDbSymbolTableRecord
100
AcDbLinetypeTableRecord
  2
ByLayer
 70
0
  3

 72
65
 73
0
 40
0.0
  0
LTYPE
  5
26
330
2
100
AcDbSymbolTableRecord
100
AcDbLinetypeTableRecord
  2
Continuous
 70
0
  3

 72
65
 73
0
 40
0.0
  0
ENDTAB
  0
TABLE
  2
LAYER
  5
1
330
0
100
AcDbSymbolTable
 70
2
  0
LAYER
  5
27
330
1
100
AcDbSymbolTableRecord
100
AcDbLayerTableRecord
  2
0
 70
0
 62
7
  6
Continuous
370
-3
390
13
347
21
  0
LAYER
  5
28
330
1
100
AcDbSymbolTableRecord
100
AcDbLayerTableRecord
  2
Defpoints
 70
0
 62
7
  6
Continuous
290
0
370
-3
390
13
347
21
  0
ENDTAB
  0
TABLE
  2
STYLE
  5
5
330
0
100
AcDbSymbolTable
 70
1
  0
STYLE
  5
29
330
5
100
AcDbSymbolTableRecord
100
AcDbTextStyleTableRecord
  2
Standard
 70
0
 40
0.0
 41
1.0
 50
0.0
 71
0
 42
2.5
  3
txt
  4

  0
ENDTAB
  0
TABLE
  2
VIEW
  5
7
330
0
100
AcDbSymbolTable
 70
0
  0
ENDTAB
  0
TABLE
  2
UCS
  5
6
330
0
100
AcDbSymbolTable
 70
0
  0
ENDTAB
  0
TABLE
  2
APPID
  5
3
330
0
100
AcDbSymbolTable
 70
3
  0
APPID
  5
2A
330
3
100
AcDbSymbolTableRecord
100
AcDbRegAppTableRecord
  2
ACAD
 70
0
  0
APPID
  5
B3
330
3
100
AcDbSymbolTableRecord
100
AcDbRegAppTableRecord
  2
HATCHBACKGROUNDCOLOR
 70
0
  0
APPID
  5
B4
330
3
100
AcDbSymbolTableRecord
100
AcDbRegAppTableRecord
  2
EZDXF
 70
0
  0
ENDTAB
  0
TABLE
  2
DIMSTYLE
  5
4
330
0
100
AcDbSymbolTable
 70
1
100
AcDbDimStyleTable
  0
DIMSTYLE
105
2B
330
4
100
AcDbSymbolTableRecord
100
AcDbDimStyleTableRecord
  2
Standard
 70
0
 40
1.0
 41
2.5
 42
0.625
 43
3.75
 44
1.25
 45
0.0
 46
0.0
 47
0.0
 48
0.0
 49
2.5
140
2.5
141
2.5
142
0.0
143
0.03937007874
144
1.0
145
0.0
146
1.0
147
0.625
148
0.0
 69
0
 70
0
 71
0
 72
0
 73
0
 74
0
 75
0
 76
0
 77
1
 78
8
 79
3
170
0
171
3
172
1
173
0
174
0
175
0
176
0
177
0
178
0
179
2
271
2
272
2
273
2
274
3
275
0
276
0
277
2
278
44
279
0
280
0
281
0
282
0
283
0
284
8
285
0
286
0
288
0
289
3
290
0
371
-2
372
-2
  0
ENDTAB
  0
TABLE
  2
BLOCK_RECORD
  5
9
330
0
100
AcDbSymbolTable
 70
2
  0
BLOCK_RECORD
  5
17
330
9
100
AcDbSymbolTableRecord
100
AcDbBlockTableRecord
  2
*Model_Space
340
1A
 70
0
280
1
281
0
  0
BLOCK_RECORD
  5
1B
330
9
100
AcDbSymbolTableRecord
100
AcDbBlockTableRecord
  2
*Paper_Space
340
1E
 70
0
280
1
281
0
  0
ENDTAB
  0
ENDSEC
  0
SECTION
  2
BLOCKS
  0
BLOCK
  5
18
330
17
100
AcDbEntity
  8
0
100
AcDbBlockBegin
  2
*Model_Space
 70
0
 10
0.0
 20
0.0
 30
0.0
  3
*Model_Space
  1

  0
ENDBLK
  5
19
330
17
100
AcDbEntity
  8
0
100
AcDbBlockEnd
  0
BLOCK
  5
1C
330
1B
100
AcDbEntity
  8
0
100
AcDbBlockBegin
  2
*Paper_Space
 70
0
 10
0.0
 20
0.0
 30
0.0
  3
*Paper_Space
  1

  0
ENDBLK
  5
1D
330
1B
100
AcDbEntity
  8
0
100
AcDbBlockEnd
  0
ENDSEC
  0
SECTION
  2
ENTITIES
  0
LINE
  5
2F
330
17
100
AcDbEntity
  8
0
 62
3
100
AcDbLine
 10
46.33877793263688
 20
-16.107966339157848
 30
0.0
 11
46.41669252782367
 21
-16.00894454429995
 31
0.0
  0
LINE
  5
30
330
17
100
AcDbEntity
  8
0
 62
3
100
AcDbLine
 10
46.41669252782367
 20
-16.00894454429995
 30
0.0
 11
46.396256731567
 21
-15.987661349192841
 31
0.0
  0
LINE
  5
31
330
17
100
AcDbEntity
  8
0
 62
3
100
AcDbLine
 10
46.396256731567
 20
-15.987661349192841
 30
0.0
 11
46.334928755818034
 21
-15.923920461698138
 31
0.0
  0
LINE
  5
32
330
17
100
AcDbEntity
  8
0
 62
3
100
AcDbLine
 10
46.334928755818034
 20
-15.923920461698138
 30
0.0
 11
46.232653137889706
 21
-15.818032966724765
 31
0.0
  0
LINE
  5
33
330
17
100
AcDbEntity
  8
0
 62
3
100
AcDbLine
 10
46.232653137889706
 20
-15.818032966724765
 30
0.0
 11
46.089326125775
 21
-15.670524653654823
 31
0.0
  0
LINE
  5
34
330
17
100
AcDbEntity
  8
0
 62
3
100
AcDbLine
 10
46.089326125775
 20
-15.670524653654823
 30
0.0
 11
45.90482859829061
 21
-15.482131977682876
 31
0.0
  0
LINE
  5
35
330
17
100
AcDbEntity
  8
0
 62
3
100
AcDbLine
 10
45.90482859829061
 20
-15.482131977682876
 30
0.0
 11
45.67900490463352
 21
-15.253779562164006
 31
0.0
  0
LINE
  5
36
330
17
100
AcDbEntity
  8
0
 62
3
100
AcDbLine
 10
45.67900490463352
 20
-15.253779562164006
 30
0.0
 11
45.411694810987186
 21
-14.986597264657746
 31
0.0
  0
LINE
  5
37
330
17
100
AcDbEntity
  8
0
 62
3
100
AcDbLine
 10
45.411694810987186
 20
-14.986597264657746
 30
0.0
 11
45.102727473742725
 21
-14.68190610981317
 31
0.0
  0
LINE
  5
38
330
17
100
AcDbEntity
  8
0
 62
3
100
AcDbLine
 10
45.102727473742725
 20
-14.68190610981317
 30
0.0
 11
44.751949692573355
 21
-14.341209957624585
 31
0.0
  0
LINE
  5
39
330
17
100
AcDbEntity
  8
0
 62
3
100
AcDbLine
 10
44.751949692573355
 20
-14.341209957624585
 30
0.0
 11
44.35921624892967
 21
-13.966188375147993
 31
0.0
  0
LINE
  5
3A
330
17
100
AcDbEntity
  8
0
 62
3
100
AcDbLine
 10
44.35921624892967
 20
-13.966188375147993
 30
0.0
 11
43.92444134382462
 21
-13.558683447019668
 31
0.0
  0
LINE
  5
3B
330
17
100
AcDbEntity
  8
0
 62
3
100
AcDbLine
 10
43.92444134382462
 20
-13.558683447019668
 30
0.0
 11
43.447559765004684
 21
-13.120699571265583
 31
0.0
  0
LINE
  5
3C
330
17
100
AcDbEntity
  8
0
 62
3
100
AcDbLine
 10
43.447559765004684
 20
-13.120699571265583
 30
0.0
 11
42.92859952844978
 21
-12.654377764856598
 31
0.0
  0
LINE
  5
3D
330
17
100
AcDbEntity
  8
0
 62
3
100
AcDbLine
 10
42.92859952844978
 20
-12.654377764856598
 30
0.0
 11
42.36765645544061
 21
-12.16200257882349
 31
0.0
  0
LINE
  5
3E
330
17
100
AcDbEntity
  8
0
 62
3
100
AcDbLine
 10
42.36765645544061
 20
-12.16200257882349
 30
0.0
 11
41.764922578960714
 21
-11.645966967456268
 31
0.0
  0
LINE
  5
3F
330
17
100
AcDbEntity
  8
0
 62
3
100
AcDbLine
 10
41.764922578960714
 20
-11.645966967456268
 30
0.0
 11
41.12069452385401
 21
-11.108782827833785
 31
0.0
  0
LINE
  5
40
330
17
100
AcDbEntity
  8
0
 62
3
100
AcDbLine
 10
41.12069452385401
 20
-11.108782827833785
 30
0.0
 11
40.43539160105924
 21
-10.553048895396046
 31
0.0
  0
LINE
  5
41
330
17
100
AcDbEntity
  8
0
 62
3
100
AcDbLine
 10
40.43539160105924
 20
-10.553048895396046
 30
0.0
 11
39.70957215580214
 21
-9.9814465909365
 31
0.0
  0
LINE
  5
42
330
17
100
AcDbEntity
  8
0
 62
3
100
AcDbLine
 10
39.70957215580214
 20
-9.9814465909365
 30
0.0
 11
38.94393331743553
 21
-9.396713055622286
 31
0.0
  0
LINE
  5
43
330
17
100
AcDbEntity
  8
0
 62
3
100
AcDbLine
 10
38.94393331743553
 20
-9.396713055622286
 30
0.0
 11
38.13931162892852
 21
-8.80165031353819
 31
0.0
  0
LINE
  5
44
330
17
100
AcDbEntity
  8
0
 62
3
100
AcDbLine
 10
38.13931162892852
 20
-8.80165031353819
 30
0.0
 11
37.29672771955087
 21
-8.199078346221071
 31
0.0
  0
LINE
  5
45
330
17
100
AcDbEntity
  8
0
 62
3
100
AcDbLine
 10
37.29672771955087
 20
-8.199078346221071
 30
0.0
 11
36.41734661042251
 21
-7.591837726301648
 31
0.0
  0
LINE
  5
46
330
17
100
AcDbEntity
  8
0
 62
3
100
AcDbLine
 10
36.41734661042251
 20
-7.591837726301648
 30
0.0
 11
35.50252248060897
 21
-6.982788773002795
 31
0.0
  0
LINE
  5
47
330
17
100
AcDbEntity
  8
0
 62
3
100
AcDbLine
 10
35.50252248060897
 20
-6.982788773002795
 30
0.0
 11
34.553770423839374
 21
-6.374759222669368
 31
0.0
  0
LINE
  5
48
330
17
100
AcDbEntity
  8
0
 62
3
100
AcDbLine
 10
34.553770423839374
 20
-6.374759222669368
 30
0.0
 11
33.572791949070684
 21
-5.770561856667939
 31
0.0
  0
LINE
  5
49
330
17
100
AcDbEntity
  8
0
 62
3
100
AcDbLine
 10
33.572791949070684
 20
-5.770561856667939
 30
0.0
 11
32.56145858803835
 21
-5.172945796945129
 31
0.0
  0
LINE
  5
4A
330
17
100
AcDbEntity
  8
0
 62
3
100
AcDbLine
 10
32.56145858803835
 20
-5.172945796945129
 30
0.0
 11
31.52182670004707
 21
-4.584620502873804
 31
0.0
  0
LINE
  5
4B
330
17
100
AcDbEntity
  8
0
 62
3
100
AcDbLine
 10
31.52182670004707
 20
-4.584620502873804
 30
0.0
 11
30.45611745468056
 21
-4.008208533895967
 31
0.0
  0
LINE
  5
4C
330
17
100
AcDbEntity
  8
0
 62
3
100
AcDbLine
 10
30.45611745468056
 20
-4.008208533895967
 30
0.0
 11
29.36673025238582
 21
-3.4462433727759674
 31
0.0
  0
LINE
  5
4D
330
17
100
AcDbEntity
  8
0
 62
3
100
AcDbLine
 10
29.36673025238582
 20
-3.4462433727759674
 30
0.0
 11
28.25620953663807
 21
-2.9011430059350403
 31
0.0
  0
LINE
  5
4E
330
17
100
AcDbEntity
  8
0
 62
3
100
AcDbLine
 10
28.25620953663807
 20
-2.9011430059350403
 30
0.0
 11
27.127289600512928
 21
-2.3752067140433866
 31
0.0
  0
LINE
  5
4F
330
17
100
AcDbEntity
  8
0
 62
3
100
AcDbLine
 10
27.127289600512928
 20
-2.3752067140433866
 30
0.0
 11
25.982823329865326
 21
-1.8705936204935085
 31
0.0
  0
LINE
  5
50
330
17
100
AcDbEntity
  8
0
 62
3
100
AcDbLine
 10
25.982823329865326
 20
-1.8705936204935085
 30
0.0
 11
24.82580781087594
 21
-1.3893051650349406
 31
0.0
  0
LINE
  5
51
330
17
100
AcDbEntity
  8
0
 62
3
100
AcDbLine
 10
24.82580781087594
 20
-1.3893051650349406
 30
0.0
 11
23.65937709903841
 21
-0.9331768767586368
 31
0.0
  0
LINE
  5
52
330
17
100
AcDbEntity
  8
0
 62
3
100
AcDbLine
 10
23.65937709903841
 20
-0.9331768767586368
 30
0.0
 11
22.48676543609181
 21
-0.5038575748905885
 31
0.0
  0
LINE
  5
53
330
17
100
AcDbEntity
  8
0
 62
3
100
AcDbLine
 10
22.48676543609181
 20
-0.5038575748905885
 30
0.0
 11
21.311304269578972
 21
-0.10279773278142557
 31
0.0
  0
LINE
  5
54
330
17
100
AcDbEntity
  8
0
 62
3
100
AcDbLine
 10
21.311304269578972
 20
-0.10279773278142557
 30
0.0
 11
20.136410101442433
 21
0.26875308188751035
 31
0.0
  0
LINE
  5
55
330
17
100
AcDbEntity
  8
0
 62
3
100
AcDbLine
 10
20.136410101442433
 20
0.26875308188751035
 30
0.0
 11
18.965560187913105
 21
0.6097655177402999
 31
0.0
  0
LINE
  5
56
330
17
100
AcDbEntity
  8
0
 62
3
100
AcDbLine
 10
18.965560187913105
 20
0.6097655177402999
 30
0.0
 11
17.80227612030239
 21
0.9194446577208311
 31
0.0
  0
LINE
  5
57
330
17
100
AcDbEntity
  8
0
 62
3
100
AcDbLine
 10
17.80227612030239
 20
0.9194446577208311
 30
0.0
 11
16.65010039690938
 21
1.1972179307908846
 31
0.0
  0
LINE
  5
58
330
17
100
AcDbEntity
  8
0
 62
3
100
AcDbLine
 10
16.65010039690938
 20
1.1972179307908846
 30
0.0
 11
15.512569580350059
 21
1.442752081243114
 31
0.0
  0
LINE
  5
59
330
17
100
AcDbEntity
  8
0
 62
3
100
AcDbLine
 10
15.512569580350059
 20
1.442752081243114
 30
0.0
 11
14.393214515252033
 21
1.6559518633617785
 31
0.0
  0
LINE
  5
5A
330
17
100
AcDbEntity
  8
0
 62
3
100
AcDbLine
 10
14.393214515252033
 20
1.6559518633617785
 30
0.0
 11
13.295518663151098
 21
1.8369607284048186
 31
0.0
  0
LINE
  5
5B
330
17
100
AcDbEntity
  8
0
 62
3
100
AcDbLine
 10
13.295518663151098
 20
1.8369607284048186
 30
0.0
 11
12.222895398529722
 21
1.986144647856122
 31
0.0
  0
LINE
  5
5C
330
17
100
AcDbEntity
  8
0
 62
3
100
AcDbLine
 10
12.222895398529722
 20
1.986144647856122
 30
0.0
 11
11.1786761724352
 21
2.1041029770104416
 31
0.0
  0
LINE
  5
5D
330
17
100
AcDbEntity
  8
0
 62
3
100
AcDbLine
 10
11.1786761724352
 20
2.1041029770104416
 30
0.0
 11
10.166093395586353
 21
2.1916436689374734
 31
0.0
  0
LINE
  5
5E
330
17
100
AcDbEntity
  8
0
 62
3
100
AcDbLine
 10
10.166093395586353
 20
2.1916436689374734
 30
0.0
 11
9.188250726857786
 21
2.2497640727711143
 31
0.0
  0
LINE
  5
5F
330
17
100
AcDbEntity
  8
0
 62
3
100
AcDbLine
 10
9.188250726857786
 20
2.2497640727711143
 30
0.0
 11
8.248103593896577
 21
2.2796589481020817
 31
0.0
  0
LINE
  5
60
330
17
100
AcDbEntity
  8
0
 62
3
100
AcDbLine
 10
8.248103593896577
 20
2.2796589481020817
 30
0.0
 11
7.348450419096059
 21
2.2826761267563143
 31
0.0
  0
LINE
  5
61
330
17
100
AcDbEntity
  8
0
 62
3
100
AcDbLine
 10
7.348450419096059
 20
2.2826761267563143
 30
0.0
 11
6.491924425596381
 21
2.2602973896138394
 31
0.0
  0
LINE
  5
62
330
17
100
AcDbEntity
  8
0
 62
3
100
AcDbLine
 10
6.491924425596381
 20
2.2602973896138394
 30
0.0
 11
5.680967396583427
 21
2.2141307590533046
 31
0.0
  0
LINE
  5
63
330
17
100
AcDbEntity
  8
0
 62
3
100
AcDbLine
 10
5.680967396583427
 20
2.2141307590533046
 30
0.0
 11
4.91782761443506
 21
2.145855199956955
 31
0.0
  0
LINE
  5
64
330
17
100
AcDbEntity
  8
0
 62
3
100
AcDbLine
 10
4.91782761443506
 20
2.145855199956955
 30
0.0
 11
4.204549763106368
 21
2.0572317529677804
 31
0.0
  0
LINE
  5
65
330
17
100
AcDbEntity
  8
0
 62
3
100
AcDbLine
 10
4.204549763106368
 20
2.0572317529677804
 30
0.0
 11
3.5429815355252883
 21
1.9500290918816177
 31
0.0
  0
LINE
  5
66
330
17
100
AcDbEntity
  8
0
 62
3
100
AcDbLine
 10
3.5429815355252883
 20
1.9500290918816177
 30
0.0
 11
2.934746768140507
 21
1.8260369203812843
 31
0.0
  0
LINE
  5
67
330
17
100
AcDbEntity
  8
0
 62
3
100
AcDbLine
 10
2.934746768140507
 20
1.8260369203812843
 30
0.0
 11
2.3812724621017565
 21
1.686997460735384
 31
0.0
  0
LINE
  5
68
330
17
100
AcDbEntity
  8
0
 62
3
100
AcDbLine
 10
2.3812724621017565
 20
1.686997460735384
 30
0.0
 11
1.883779804059328
 21
1.5346153639765987
 31
0.0
  0
LINE
  5
69
330
17
100
AcDbEntity
  8
0
 62
3
100
AcDbLine
 10
1.883779804059328
 20
1.5346153639765987
 30
0.0
 11
1.4432738141116983
 21
1.3704984951370136
 31
0.0
  0
LINE
  5
6A
330
17
100
AcDbEntity
  8
0
 62
3
100
AcDbLine
 10
1.4432738141116983
 20
1.3704984951370136
 30
0.0
 11
1.0605715689923731
 21
1.1961493279545294
 31
0.0
  0
LINE
  5
6B
330
17
100
AcDbEntity
  8
0
 62
3
100
AcDbLine
 10
1.0605715689923731
 20
1.1961493279545294
 30
0.0
 11
0.7362893735429517
 21
1.0129340981415282
 31
0.0
  0
LINE
  5
6C
330
17
100
AcDbEntity
  8
0
 62
3
100
AcDbLine
 10
0.7362893735429517
 20
1.0129340981415282
 30
0.0
 11
0.4708560400927931
 21
0.8220680029924381
 31
0.0
  0
LINE
  5
6D
330
17
100
AcDbEntity
  8
0
 62
3
100
AcDbLine
 10
0.4708560400927931
 20
0.8220680029924381
 30
0.0
 11
0.2645258196331897
 21
0.6245923615048241
 31
0.0
  0
LINE
  5
6E
330
17
100
AcDbEntity
  8
0
 62
3
100
AcDbLine
 10
0.2645258196331897
 20
0.6245923615048241
 30
0.0
 11
0.11736577724478504
 21
0.4213536815825023
 31
0.0
  0
LINE
  5
6F
330
17
100
AcDbEntity
  8
0
 62
3
100
AcDbLine
 10
0.11736577724478504
 20
0.4213536815825023
 30
0.0
 11
0.02927791889959328
 21
0.2130093015409784
 31
0.0
  0
LINE
  5
70
330
17
100
AcDbEntity
  8
0
 62
3
100
AcDbLine
 10
0.02927791889959328
 20
0.2130093015409784
 30
0.0
 11
0.0
 21
0.0
 31
0.0
  0
LINE
  5
71
330
17
100
AcDbEntity
  8
0
 62
3
100
AcDbLine
 10
0.0
 20
0.0
 30
0.0
 11
0.02911207962578151
 21
-0.21302066618116555
 31
0.0
  0
LINE
  5
72
330
17
100
AcDbEntity
  8
0
 62
3
100
AcDbLine
 10
0.02911207962578151
 20
-0.21302066618116555
 30
0.0
 11
0.11605412854882252
 21
-0.42153529786718025
 31
0.0
  0
LINE
  5
73
330
17
100
AcDbEntity
  8
0
 62
3
100
AcDbLine
 10
0.11605412854882252
 20
-0.42153529786718025
 30
0.0
 11
0.26015311045127043
 21
-0.6255099909105439
 31
0.0
  0
LINE
  5
74
330
17
100
AcDbEntity
  8
0
 62
3
100
AcDbLine
 10
0.26015311045127043
 20
-0.6255099909105439
 30
0.0
 11
0.46062797303504416
 21
-0.824960239098246
 31
0.0
  0
LINE
  5
75
330
17
100
AcDbEntity
  8
0
 62
3
100
AcDbLine
 10
0.46062797303504416
 20
-0.824960239098246
 30
0.0
 11
0.7165979079215036
 21
-1.0199705346884684
 31
0.0
  0
LINE
  5
76
330
17
100
AcDbEntity
  8
0
 62
3
100
AcDbLine
 10
0.7165979079215036
 20
-1.0199705346884684
 30
0.0
 11
1.0270710290454865
 21
-1.210677536907852
 31
0.0
  0
LINE
  5
77
330
17
100
AcDbEntity
  8
0
 62
3
100
AcDbLine
 10
1.0270710290454865
 20
-1.210677536907852
 30
0.0
 11
1.3909675125296879
 21
-1.3972772984768511
 31
0.0
  0
LINE
  5
78
330
17
100
AcDbEntity
  8
0
 62
3
100
AcDbLine
 10
1.3909675125296879
 20
-1.3972772984768511
 30
0.0
 11
1.8071176494122514
 21
-1.5800313193800974
 31
0.0
  0
LINE
  5
79
330
17
100
AcDbEntity
  8
0
 62
3
100
AcDbLine
 10
1.8071176494122514
 20
-1.5800313193800974
 30
0.0
 11
2.274259777309028
 21
-1.7592614691324115
 31
0.0
  0
LINE
  5
7A
330
17
100
AcDbEntity
  8
0
 62
3
100
AcDbLine
 10
2.274259777309028
 20
-1.7592614691324115
 30
0.0
 11
2.7910618010236172
 21
-1.9353597045207636
 31
0.0
  0
LINE
  5
7B
330
17
100
AcDbEntity
  8
0
 62
3
100
AcDbLine
 10
2.7910618010236172
 20
-1.9353597045207636
 30
0.0
 11
3.3561037136848504
 21
-2.108771012792687
 31
0.0
  0
LINE
  5
7C
330
17
100
AcDbEntity
  8
0
 62
3
100
AcDbLine
 10
3.3561037136848504
 20
-2.108771012792687
 30
0.0
 11
3.967891659559386
 21
-2.2800265407156246
 31
0.0
  0
LINE
  5
7D
330
17
100
AcDbEntity
  8
0
 62
3
100
AcDbLine
 10
3.967891659559386
 20
-2.2800265407156246
 30
0.0
 11
4.624873682597123
 21
-2.4497067793792837
 31
0.0
  0
LINE
  5
7E
330
17
100
AcDbEntity
  8
0
 62
3
100
AcDbLine
 10
4.624873682597123
 20
-2.4497067793792837
 30
0.0
 11
5.32541217460528
 21
-2.6184770496793845
 31
0.0
  0
LINE
  5
7F
330
17
100
AcDbEntity
  8
0
 62
3
100
AcDbLine
 10
5.32541217460528
 20
-2.6184770496793845
 30
0.0
 11
6.067813071021422
 21
-2.7870456218943644
 31
0.0
  0
LINE
  5
80
330
17
100
AcDbEntity
  8
0
 62
3
100
AcDbLine
 10
6.067813071021422
 20
-2.7870456218943644
 30
0.0
 11
6.850309640423897
 21
-2.9562042178138626
 31
0.0
  0
LINE
  5
81
330
17
100
AcDbEntity
  8
0
 62
3
100
AcDbLine
 10
6.850309640423897
 20
-2.9562042178138626
 30
0.0
 11
7.671070671515348
 21
-3.126784719318138
 31
0.0
  0
LINE
  5
82
330
17
100
AcDbEntity
  8
0
 62
3
100
AcDbLine
 10
7.671070671515348
 20
-3.126784719318138
 30
0.0
 11
8.528188181358447
 21
-3.299679170440683
 31
0.0
  0
LINE
  5
83
330
17
100
AcDbEntity
  8
0
 62
3
100
AcDbLine
 10
8.528188181358447
 20
-3.299679170440683
 30
0.0
 11
9.419692165060479
 21
-3.475817328993557
 31
0.0
  0
LINE
  5
84
330
17
100
AcDbEntity
  8
0
 62
3
100
AcDbLine
 10
9.419692165060479
 20
-3.475817328993557
 30
0.0
 11
10.3435451153606
 21
-3.6561525336339855
 31
0.0
  0
LINE
  5
85
330
17
100
AcDbEntity
  8
0
 62
3
100
AcDbLine
 10
10.3435451153606
 20
-3.6561525336339855
 30
0.0
 11
11.2976278082382
 21
-3.841671284588557
 31
0.0
  0
LINE
  5
86
330
17
100
AcDbEntity
  8
0
 62
3
100
AcDbLine
 10
11.2976278082382
 20
-3.841671284588557
 30
0.0
 11
12.279745881241459
 21
-4.0333550772423905
 31
0.0
  0
LINE
  5
87
330
17
100
AcDbEntity
  8
0
 62
3
100
AcDbLine
 10
12.279745881241459
 20
-4.0333550772423905
 30
0.0
 11
13.287637591334681
 21
-4.232173500937236
 31
0.0
  0
LINE
  5
88
330
17
100
AcDbEntity
  8
0
 62
3
100
AcDbLine
 10
13.287637591334681
 20
-4.232173500937236
 30
0.0
 11
14.318966085442712
 21
-4.439080427027164
 31
0.0
  0
LINE
  5
89
330
17
100
AcDbEntity
  8
0
 62
3
100
AcDbLine
 10
14.318966085442712
 20
-4.439080427027164
 30
0.0
 11
15.371318624024575
 21
-4.654975816492083
 31
0.0
  0
LINE
  5
8A
330
17
100
AcDbEntity
  8
0
 62
3
100
AcDbLine
 10
15.371318624024575
 20
-4.654975816492083
 30
0.0
 11
16.442206276665946
 21
-4.880698342355174
 31
0.0
  0
LINE
  5
8B
330
17
100
AcDbEntity
  8
0
 62
3
100
AcDbLine
 10
16.442206276665946
 20
-4.880698342355174
 30
0.0
 11
17.529084737113806
 21
-5.117013492781311
 31
0.0
  0
LINE
  5
8C
330
17
100
AcDbEntity
  8
0
 62
3
100
AcDbLine
 10
17.529084737113806
 20
-5.117013492781311
 30
0.0
 11
18.629339883125702
 21
-5.364589483549338
 31
0.0
  0
LINE
  5
8D
330
17
100
AcDbEntity
  8
0
 62
3
100
AcDbLine
 10
18.629339883125702
 20
-5.364589483549338
 30
0.0
 11
19.740305681894046
 21
-5.623970791687654
 31
0.0
  0
LINE
  5
8E
330
17
100
AcDbEntity
  8
0
 62
3
100
AcDbLine
 10
19.740305681894046
 20
-5.623970791687654
 30
0.0
 11
20.859266426427098
 21
-5.895580024492418
 31
0.0
  0
LINE
  5
8F
330
17
100
AcDbEntity
  8
0
 62
3
100
AcDbLine
 10
20.859266426427098
 20
-5.895580024492418
 30
0.0
 11
21.983466220874085
 21
-6.179696853328863
 31
0.0
  0
LINE
  5
90
330
17
100
AcDbEntity
  8
0
 62
3
100
AcDbLine
 10
21.983466220874085
 20
-6.179696853328863
 30
0.0
 11
23.110129483445718
 21
-6.47644169479176
 31
0.0
  0
LINE
  5
91
330
17
100
AcDbEntity
  8
0
 62
3
100
AcDbLine
 10
23.110129483445718
 20
-6.47644169479176
 30
0.0
 11
24.236464340877795
 21
-6.785771411945433
 31
0.0
  0
LINE
  5
92
330
17
100
AcDbEntity
  8
0
 62
3
100
AcDbLine
 10
24.236464340877795
 20
-6.785771411945433
 30
0.0
 11
25.359665421456068
 21
-7.107464986128036
 31
0.0
  0
LINE
  5
93
330
17
100
AcDbEntity
  8
0
 62
3
100
AcDbLine
 10
25.359665421456068
 20
-7.107464986128036
 30
0.0
 11
26.476947709749645
 21
-7.441127176334504
 31
0.0
  0
LINE
  5
94
330
17
100
AcDbEntity
  8
0
 62
3
100
AcDbLine
 10
26.476947709749645
 20
-7.441127176334504
 30
0.0
 11
27.585551439297216
 21
-7.7861897749109374
 31
0.0
  0
LINE
  5
95
330
17
100
AcDbEntity
  8
0
 62
3
100
AcDbLine
 10
27.585551439297216
 20
-7.7861897749109374
 30
0.0
 11
28.68273258627251
 21
-8.14188607682324
 31
0.0
  0
LINE
  5
96
330
17
100
AcDbEntity
  8
0
 62
3
100
AcDbLine
 10
28.68273258627251
 20
-8.14188607682324
 30
0.0
 11
29.765821184544155
 21
-8.507292749942536
 31
0.0
  0
LINE
  5
97
330
17
100
AcDbEntity
  8
0
 62
3
100
AcDbLine
 10
29.765821184544155
 20
-8.507292749942536
 30
0.0
 11
30.832189743867733
 21
-8.881310057934158
 31
0.0
  0
LINE
  5
98
330
17
100
AcDbEntity
  8
0
 62
3
100
AcDbLine
 10
30.832189743867733
 20
-8.881310057934158
 30
0.0
 11
31.87928916577718
 21
-9.26268268949677
 31
0.0
  0
LINE
  5
99
330
17
100
AcDbEntity
  8
0
 62
3
100
AcDbLine
 10
31.87928916577718
 20
-9.26268268949677
 30
0.0
 11
32.90463721834673
 21
-9.650007101920878
 31
0.0
  0
LINE
  5
9A
330
17
100
AcDbEntity
  8
0
 62
3
100
AcDbLine
 10
32.90463721834673
 20
-9.650007101920878
 30
0.0
 11
33.90586127514282
 21
-10.041738810410948
 31
0.0
  0
LINE
  5
9B
330
17
100
AcDbEntity
  8
0
 62
3
100
AcDbLine
 10
33.90586127514282
 20
-10.041738810410948
 30
0.0
 11
34.88066531264542
 21
-10.436220195777622
 31
0.0
  0
LINE
  5
9C
330
17
100
AcDbEntity
  8
0
 62
3
100
AcDbLine
 10
34.88066531264542
 20
-10.436220195777622
 30
0.0
 11
35.82687027623753
 21
-10.831690854517035
 31
0.0
  0
LINE
  5
9D
330
17
100
AcDbEntity
  8
0
 62
3
100
AcDbLine
 10
35.82687027623753
 20
-10.831690854517035
 30
0.0
 11
36.7423787191471
 21
-11.22630480520698
 31
0.0
  0
LINE
  5
9E
330
17
100
AcDbEntity
  8
0
 62
3
100
AcDbLine
 10
36.7423787191471
 20
-11.22630480520698
 30
0.0
 11
37.625223565327374
 21
-11.618155187795622
 31
0.0
  0
LINE
  5
9F
330
17
100
AcDbEntity
  8
0
 62
3
100
AcDbLine
 10
37.625223565327374
 20
-11.618155187795622
 30
0.0
 11
38.47353886817232
 21
-12.005268353906501
 31
0.0
  0
LINE
  5
A0
330
17
100
AcDbEntity
  8
0
 62
3
100
AcDbLine
 10
38.47353886817232
 20
-12.005268353906501
 30
0.0
 11
39.2855656058037
 21
-12.385670684400687
 31
0.0
  0
LINE
  5
A1
330
17
100
AcDbEntity
  8
0
 62
3
100
AcDbLine
 10
39.2855656058037
 20
-12.385670684400687
 30
0.0
 11
40.05966185397207
 21
-12.75736074032175
 31
0.0
  0
LINE
  5
A2
330
17
100
AcDbEntity
  8
0
 62
3
100
AcDbLine
 10
40.05966185397207
 20
-12.75736074032175
 30
0.0
 11
40.7942849835427
 21
-13.118346238996438
 31
0.0
  0
LINE
  5
A3
330
17
100
AcDbEntity
  8
0
 62
3
100
AcDbLine
 10
40.7942849835427
 20
-13.118346238996438
 30
0.0
 11
41.48800497664065
 21
-13.466666135433023
 31
0.0
  0
LINE
  5
A4
330
17
100
AcDbEntity
  8
0
 62
3
100
AcDbLine
 10
41.48800497664065
 20
-13.466666135433023
 30
0.0
 11
42.1394909079437
 21
-13.800407882237039
 31
0.0
  0
LINE
  5
A5
330
17
100
AcDbEntity
  8
0
 62
3
100
AcDbLine
 10
42.1394909079437
 20
-13.800407882237039
 30
0.0
 11
42.74752352291242
 21
-14.11771190451796
 31
0.0
  0
LINE
  5
A6
330
17
100
AcDbEntity
  8
0
 62
3
100
AcDbLine
 10
42.74752352291242
 20
-14.11771190451796
 30
0.0
 11
43.31097283286277
 21
-14.416800518612014
 31
0.0
  0
LINE
  5
A7
330
17
100
AcDbEntity
  8
0
 62
3
100
AcDbLine
 10
43.31097283286277
 20
-14.416800518612014
 30
0.0
 11
43.82881229087794
 21
-14.695970774348659
 31
0.0
  0
LINE
  5
A8
330
17
100
AcDbEntity
  8
0
 62
3
100
AcDbLine
 10
43.82881229087794
 20
-14.695970774348659
 30
0.0
 11
44.300111408156404
 21
-14.95365173537585
 31
0.0
  0
LINE
  5
A9
330
17
100
AcDbEntity
  8
0
 62
3
100
AcDbLine
 10
44.300111408156404
 20
-14.95365173537585
 30
0.0
 11
44.72402984180136
 21
-15.188357062978447
 31
0.0
  0
LINE
  5
AA
330
17
100
AcDbEntity
  8
0
 62
3
100
AcDbLine
 10
44.72402984180136
 20
-15.188357062978447
 30
0.0
 11
45.09982229355065
 21
-15.398749488196337
 31
0.0
  0
LINE
  5
AB
330
17
100
AcDbEntity
  8
0
 62
3
100
AcDbLine
 10
45.09982229355065
 20
-15.398749488196337
 30
0.0
 11
45.42683002726436
 21
-15.583613713403452
 31
0.0
  0
LINE
  5
AC
330
17
100
AcDbEntity
  8
0
 62
3
100
AcDbLine
 10
45.42683002726436
 20
-15.583613713403452
 30
0.0
 11
45.70448513644034
 21
-15.741887129496732
 31
0.0
  0
LINE
  5
AD
330
17
100
AcDbEntity
  8
0
 62
3
100
AcDbLine
 10
45.70448513644034
 20
-15.741887129496732
 30
0.0
 11
45.932306546558436
 21
-15.872651480777442
 31
0.0
  0
LINE
  5
AE
330
17
100
AcDbEntity
  8
0
 62
3
100
AcDbLine
 10
45.932306546558436
 20
-15.872651480777442
 30
0.0
 11
46.10991140110448
 21
-15.975153463321938
 31
0.0
  0
LINE
  5
AF
330
17
100
AcDbEntity
  8
0
 62
3
100
AcDbLine
 10
46.10991140110448
 20
-15.975153463321938
 30
0.0
 11
46.236987668241376
 21
-16.048793330505994
 31
0.0
  0
LINE
  5
B0
330
17
100
AcDbEntity
  8
0
 62
3
100
AcDbLine
 10
46.236987668241376
 20
-16.048793330505994
 30
0.0
 11
46.31331874534536
 21
-16.093151853701528
 31
0.0
  0
LINE
  5
B1
330
17
100
AcDbEntity
  8
0
 62
3
100
AcDbLine
 10
46.31331874534536
 20
-16.093151853701528
 30
0.0
 11
46.33877793263688
 21
-16.107966339157848
 31
0.0
  0
LINE
  5
B2
330
17
100
AcDbEntity
  8
0
 62
3
100
AcDbLine
 10
46.33877793263688
 20
-16.107966339157848
 30
0.0
 11
46.41669252782367
 21
-16.00894454429995
 31
0.0
  0
ENDSEC
  0
SECTION
  2
OBJECTS
  0
DICTIONARY
  5
A
330
0
100
AcDbDictionary
280
0
281
1
  3
ACAD_COLOR
350
B
  3
ACAD_GROUP
350
C
  3
ACAD_LAYOUT
350
D
  3
ACAD_MATERIAL
350
E
  3
ACAD_MLEADERSTYLE
350
F
  3
ACAD_MLINESTYLE
350
10
  3
ACAD_PLOTSETTINGS
350
11
  3
ACAD_PLOTSTYLENAME
350
12
  3
ACAD_SCALELIST
350
14
  3
ACAD_TABLESTYLE
350
15
  3
ACAD_VISUALSTYLE
350
16
  3
EZDXF_META
350
2D
  0
DICTIONARY
  5
B
330
A
100
AcDbDictionary
280
0
281
1
  0
DICTIONARY
  5
C
330
A
100
AcDbDictionary
280
0
281
1
  0
DICTIONARY
  5
D
330
A
100
AcDbDictionary
280
0
281
1
  3
Model
350
1A
  3
Layout1
350
1E
  0
DICTIONARY
  5
E
330
A
100
AcDbDictionary
280
0
281
1
  3
ByBlock
350
1F
  3
ByLayer
350
20
  3
Global
350
21
  0
DICTIONARY
  5
F
330
A
100
AcDbDictionary
280
0
281
1
  3
Standard
350
2C
  0
DICTIONARY
  5
10
330
A
100
AcDbDictionary
280
0
281
1
  3
Standard
350
22
  0
DICTIONARY
  5
11
330
A
100
AcDbDictionary
280
0
281
1
  0
ACDBDICTIONARYWDFLT
  5
12
330
A
100
AcDbDictionary
280
0
281
1
  3
Normal
350
13
100
AcDbDictionaryWithDefault
340
13
  0
ACDBPLACEHOLDER
  5
13
330
12
  0
DICTIONARY
  5
14
330
A
100
AcDbDictionary
280
0
281
1
  0
DICTIONARY
  5
15
330
A
100
AcDbDictionary
280
0
281
1
  0
DICTIONARY
  5
16
330
A
100
AcDbDictionary
280
0
281
1
  0
LAYOUT
  5
1A
330
D
100
AcDbPlotSettings
  1

  2
Adobe PDF
  4
A3
  6

 40
7.5
 41
20.0
 42
7.5
 43
20.0
 44
420.0
 45
297.0
 46
0.0
 47
0.0
 48
0.0
 49
0.0
140
0.0
141
0.0
142
1.0
143
1.0
 70
1024
 72
1
 73
0
 74
5
  7

 75
16
 76
0
 77
2
 78
300
147
1.0
148
0.0
149
0.0
100
AcDbLayout
  1
Model
 70
1
 71
0
 10
0.0
 20
0.0
 11
420.0
 21
297.0
 12
0.0
 22
0.0
 32
0.0
 14
1e+20
 24
1e+20
 34
1e+20
 15
-1e+20
 25
-1e+20
 35
-1e+20
146
0.0
 13
0.0
 23
0.0
 33
0.0
 16
1.0
 26
0.0
 36
0.0
 17
0.0
 27
1.0
 37
0.0
 76
1
330
17
  0
LAYOUT
  5
1E
330
D
100
AcDbPlotSettings
  1

  2
Adobe PDF
  4
A3
  6

 40
7.5
 41
20.0
 42
7.5
 43
20.0
 44
420.0
 45
297.0
 46
0.0
 47
0.0
 48
0.0
 49
0.0
140
0.0
141
0.0
142
1.0
143
1.0
 70
0
 72
1
 73
0
 74
5
  7

 75
16
 76
0
 77
2
 78
300
147
1.0
148
0.0
149
0.0
100
AcDbLayout
  1
Layout1
 70
1
 71
1
 10
0.0
 20
0.0
 11
420.0
 21
297.0
 12
0.0
 22
0.0
 32
0.0
 14
1e+20
 24
1e+20
 34
1e+20
 15
-1e+20
 25
-1e+20
 35
-1e+20
146
0.0
 13
0.0
 23
0.0
 33
0.0
 16
1.0
 26
0.0
 36
0.0
 17
0.0
 27
1.0
 37
0.0
 76
1
330
1B
  0
MATERIAL
  5
1F
102
{ACAD_REACTORS
330
E
102
}
330
E
100
AcDbMaterial
  1
ByBlock
  2

 70
0
 40
1.0
 71
1
 41
1.0
 91
-1023410177
 42
1.0
 72
1
  3

 73
1
 74
1
 75
1
 44
0.5
 73
0
 45
1.0
 46
1.0
 77
1
  4

 78
1
 79
1
170
1
 48
1.0
171
1
  6

172
1
173
1
174
1
140
1.0
141
1.0
175
1
  7

176
1
177
1
178
1
143
1.0
179
1
  8

270
1
271
1
272
1
145
1.0
146
1.0
273
1
  9

274
1
275
1
276
1
 42
1.0
 72
1
  3

 73
1
 74
1
 75
1
 94
63
  0
MATERIAL
  5
20
102
{ACAD_REACTORS
330
E
102
}
330
E
100
AcDbMaterial
  1
ByLayer
  2

 70
0
 40
1.0
 71
1
 41
1.0
 91
-1023410177
 42
1.0
 72
1
  3

 73
1
 74
1
 75
1
 44
0.5
 73
0
 45
1.0
 46
1.0
 77
1
  4

 78
1
 79
1
170
1
 48
1.0
171
1
  6

172
1
173
1
174
1
140
1.0
141
1.0
175
1
  7

176
1
177
1
178
1
143
1.0
179
1
  8

270
1
271
1
272
1
145
1.0
146
1.0
273
1
  9

274
1
275
1
276
1
 42
1.0
 72
1
  3

 73
1
 74
1
 75
1
 94
63
  0
MATERIAL
  5
21
102
{ACAD_REACTORS
330
E
102
}
330
E
100
AcDbMaterial
  1
Global
  2

 70
0
 40
1.0
 71
1
 41
1.0
 91
-1023410177
 42
1.0
 72
1
  3

 73
1
 74
1
 75
1
 44
0.5
 73
0
 45
1.0
 46
1.0
 77
1
  4

 78
1
 79
1
170
1
 48
1.0
171
1
  6

172
1
173
1
174
1
140
1.0
141
1.0
175
1
  7

176
1
177
1
178
1
143
1.0
179
1
  8

270
1
271
1
272
1
145
1.0
146
1.0
273
1
  9

274
1
275
1
276
1
 42
1.0
 72
1
  3

 73
1
 74
1
 75
1
 94
63
  0
MLINESTYLE
  5
22
102
{ACAD_REACTORS
330
10
102
}
330
10
100
AcDbMlineStyle
  2
Standard
 70
0
  3

 62
256
 51
90.0
 52
90.0
 71
2
 49
0.5
 62
256
  6
BYLAYER
 49
-0.5
 62
256
  6
BYLAYER
  0
MLEADERSTYLE
  5
2C
102
{ACAD_REACTORS
330
F
102
}
330
F
100
AcDbMLeaderStyle
179
2
170
2
171
1
172
0
 90
2
 40
0.0
 41
0.0
173
1
 91
-1056964608
 92
-2
290
1
 42
2.0
291
1
 43
8.0
  3
Standard
 44
4.0
300

342
29
174
1
175
1
176
0
178
1
 93
-1056964608
 45
4.0
292
0
297
0
 46
4.0
 94
-1056964608
 47
1.0
 49
1.0
140
1.0
294
1
141
0.0
177
0
142
1.0
295
0
296
0
143
3.75
271
0
272
9
273
9
  0
DICTIONARY
  5
2D
330
A
100
AcDbDictionary
281
1
  3
CREATED_BY_EZDXF
350
2E
  3
WRITTEN_BY_EZDXF
350
B5
  0
DICTIONARYVAR
  5
2E
330
2D
100
DictionaryVariables
280
0
  1
1.0.3 @ 2023-11-16T15:43:35.574904+00:00
  0
DICTIONARYVAR
  5
B5
330
2D
100
DictionaryVariables
280
0
  1
1.0.3 @ 2023-11-16T15:43:35.579904+00:00
  0
ENDSEC
  0
EOF
